<svg width="21" height="24" viewBox="0 0 21 24" fill="none" xmlns="http://www.w3.org/2000/svg">
<path fill-rule="evenodd" clip-rule="evenodd" d="M10.5 9.33333C10.9596 9.33333 11.4148 9.2428 11.8394 9.06691C12.264 8.89102 12.6499 8.63321 12.9749 8.30821C13.2999 7.9832 13.5577 7.59737 13.7336 7.17273C13.9095 6.74809 14 6.29296 14 5.83333C14 5.37371 13.9095 4.91858 13.7336 4.49394C13.5577 4.0693 13.2999 3.68347 12.9749 3.35846C12.6499 3.03345 12.264 2.77565 11.8394 2.59976C11.4148 2.42386 10.9596 2.33333 10.5 2.33333C9.57174 2.33333 8.6815 2.70208 8.02513 3.35846C7.36875 4.01484 7 4.90508 7 5.83333C7 6.76159 7.36875 7.65183 8.02513 8.30821C8.6815 8.96459 9.57174 9.33333 10.5 9.33333ZM10.5 11.6667C12.0471 11.6667 13.5308 11.0521 14.6248 9.95812C15.7188 8.86416 16.3333 7.38043 16.3333 5.83333C16.3333 4.28624 15.7188 2.80251 14.6248 1.70854C13.5308 0.614582 12.0471 0 10.5 0C8.9529 0 7.46917 0.614582 6.37521 1.70854C5.28125 2.80251 4.66667 4.28624 4.66667 5.83333C4.66667 7.38043 5.28125 8.86416 6.37521 9.95812C7.46917 11.0521 8.9529 11.6667 10.5 11.6667ZM7 16.3333C5.76232 16.3333 4.57534 16.825 3.70017 17.7002C2.825 18.5753 2.33333 19.7623 2.33333 21V22.1667C2.33333 22.4761 2.21042 22.7728 1.99162 22.9916C1.77283 23.2104 1.47609 23.3333 1.16667 23.3333C0.857247 23.3333 0.560501 23.2104 0.341709 22.9916C0.122916 22.7728 0 22.4761 0 22.1667V21C0 19.1435 0.737498 17.363 2.05025 16.0503C3.36301 14.7375 5.14348 14 7 14H14C15.8565 14 17.637 14.7375 18.9497 16.0503C20.2625 17.363 21 19.1435 21 21V22.1667C21 22.4761 20.8771 22.7728 20.6583 22.9916C20.4395 23.2104 20.1428 23.3333 19.8333 23.3333C19.5239 23.3333 19.2272 23.2104 19.0084 22.9916C18.7896 22.7728 18.6667 22.4761 18.6667 22.1667V21C18.6667 19.7623 18.175 18.5753 17.2998 17.7002C16.4247 16.825 15.2377 16.3333 14 16.3333H7Z" fill="white"/>
</svg>
