<svg xmlns="http://www.w3.org/2000/svg" xmlns:xlink="http://www.w3.org/1999/xlink" width="76.597" height="73.803" viewBox="0 0 76.597 73.803">
  <defs>
    <clipPath id="clip-path">
      <rect id="Rectangle_307" data-name="Rectangle 307" width="42.044" height="64.711" transform="translate(0 0)" fill="#fff"/>
    </clipPath>
  </defs>
  <g id="Group_157" data-name="Group 157" transform="matrix(0.643, -0.766, 0.766, 0.643, 0, 32.208)">
    <g id="Group_152" data-name="Group 152" transform="translate(0 0)" clip-path="url(#clip-path)">
      <path id="Path_353" data-name="Path 353" d="M35.172,58.005c3.886-3.172,6.988-7.815,6.869-13.059a15.732,15.732,0,0,1-.162-1.813c.022-.08.182-.019.155-.088a4.011,4.011,0,0,1-.584-1.006c-.068-.229.036-.3.03-.413,0-.08-.436-1.088-.514-1.314A21.048,21.048,0,0,0,39.1,36.1c-.055-.082-.356-.285-.372-.321a31.062,31.062,0,0,0-3.783-5.606c-.545-.666-1.089-1.357-1.623-2.015-.438-.539-.86-1.024-1.26-1.6-.068-.1-.058-.271-.11-.324-.076-.077-.385-.126-.538-.374a7.234,7.234,0,0,0-.865-1.034c-.625-.743-1.209-1.547-1.826-2.3-2.59-3.143-5.372-6.513-8.118-9.542-.584-.644-1.283-1.44-1.9-2.06-.437-.44-1.313-.934-1.672-1.346-.1-.11-.043-.243-.141-.32-.156-.123-.5-.194-.707-.33-.748-.485-1.429-1.314-2.313-.463-.136.131-.523.861-.755.681-.225-.437-.206-.926-.393-1.356l.156-.152a3.663,3.663,0,0,1-.423-1.654c-.013-.1-.1-.19-.116-.327-.019-.232.116-.594-.013-.832a1.645,1.645,0,0,1,.345-.074,21.466,21.466,0,0,1,2.47.623c4.719.952,9.4,1.82,14.256,1.428.357-.029.8.064,1.181,0a1.728,1.728,0,0,0,1.268-1.893c-.011-.033-.321-.581-.35-.6a6.869,6.869,0,0,0-.759-.119c-.392,0-.939.155-1.34.166a34.65,34.65,0,0,1-7.233-.538,4.529,4.529,0,0,0-.7-.231,3.169,3.169,0,0,1-1.056-.13c-1.754-.47-3.9-.584-5.481-1.3A9.3,9.3,0,0,0,13.874,2.1c-.1-.039-.177-.18-.235-.183-.04,0-.128.115-.225.119s-.585-.046-.63-.06c-.095-.03-.09-.182-.171-.24-.114-.081-.243-.086-.363-.194-.312-.28-.887-1.379-1.222-1.51A5.029,5.029,0,0,0,8.475.655a1.942,1.942,0,0,0-.5,1.357c.035.191.252.281.3.495.079.342-.038.876.088,1.178.106.252.333.259.388.405.189.505.3,1.871.433,2.5.284,1.348.663,2.718.905,4.085a4.013,4.013,0,0,1,.11.769c-.021.253-.293.484-.321.8a19.012,19.012,0,0,0,.418,2.9c.324,1.764.879,3.414,1.284,5.132a13.927,13.927,0,0,1,.348,1.718c.028.542-.335,1.107.047,1.609a1.28,1.28,0,0,0,1.224.277c.4-.165.194-.071.575-.13A6.135,6.135,0,0,0,15.4,22.706c.823-.97-.053-3.147-.284-4.305-.455-2.277-.863-4.45-1.4-6.681-.086-.361-.243-.722-.353-1.075-.057-.183.236-.133.336-.1.256.09,2.77,2.494,3.146,2.874,2,2.03,3.93,4.285,5.784,6.436,2.98,3.459,5.856,6.994,8.714,10.511C36.056,36.17,43.1,44.36,37.6,52c-3.87,5.372-9.848,8.437-16.438,9.384-5.725.823-11.463.292-17.2-.207-.385-.034-1.164.132-1.412-.267-.13.227-.291.077-.453.1a2.523,2.523,0,0,0-1.025.322A3.534,3.534,0,0,0,.026,62.746a1.727,1.727,0,0,0,.522,1.508,5.072,5.072,0,0,0,1,.17,11.618,11.618,0,0,0,1.16-.175c1.418-.084,3.076.162,4.512.225,1.057.046,2.487-.067,3.494.069.157.021.1.171.153.168.122-.005.191-.147.321-.164.621-.082,1.9-.027,2.623-.047,8.6-.238,14.475-.874,21.362-6.5" transform="translate(0 0)" fill="#fff"/>
    </g>
  </g>
</svg>
