<svg width="7" height="16" viewBox="0 0 7 16" fill="none" xmlns="http://www.w3.org/2000/svg">
<g clip-path="url(#clip0_160_566)">
<path d="M3.12543 5.07043C3.88005 5.0203 4.72231 5.19616 5.23285 5.82825L5.31879 5.94348C5.67282 6.45747 5.78337 7.16092 5.66351 8.0304L5.59222 8.44348C5.57619 8.52176 5.54845 8.62436 5.51117 8.75012L5.37347 9.19739C5.21235 9.71359 4.98207 10.4495 4.80804 11.1603C4.72103 11.5157 4.64809 11.864 4.60492 12.174C4.57243 12.4072 4.55699 12.6161 4.5639 12.7892L4.57855 12.9503L4.57953 12.9552L4.59515 13.0353C4.60353 13.0612 4.61519 13.0863 4.62933 13.1095L4.67816 13.172C4.69695 13.1908 4.71806 13.2072 4.74066 13.2208H4.73969C4.82494 13.2713 4.94168 13.2976 5.07855 13.3038C5.21447 13.31 5.36515 13.2958 5.5141 13.2706C5.81238 13.2202 6.09588 13.1262 6.22992 13.0714L6.32074 13.0499C6.35174 13.0469 6.38356 13.0478 6.41449 13.0538L6.50238 13.0851C6.52994 13.0995 6.55579 13.118 6.57855 13.1398L6.63617 13.213C6.65205 13.2401 6.66419 13.2693 6.6723 13.2999L6.68402 13.3937L6.67035 13.4874L6.42523 14.3331C6.41822 14.3574 6.40793 14.3805 6.39594 14.4025L6.35297 14.464C6.33631 14.483 6.31759 14.5001 6.2973 14.5148L6.23187 14.5519C5.04044 15.0514 4.20454 15.2735 3.52094 15.2736H3.51898C2.82267 15.2591 2.14894 15.0155 1.59613 14.5773V14.5763C1.29359 14.3651 1.11797 14.0411 1.03265 13.6476C0.947146 13.2531 0.950518 12.7835 1.00922 12.2745C1.12659 11.257 1.46695 10.06 1.78363 8.94543L2.05414 7.9718L2.10297 7.74719C2.1153 7.67009 2.12309 7.59224 2.1225 7.51868C2.12157 7.4071 2.10185 7.31326 2.06097 7.24329L2.01312 7.18176C1.94387 7.11588 1.83801 7.07501 1.70355 7.05676C1.5699 7.03866 1.41561 7.04329 1.25922 7.06262C1.02435 7.09166 0.791289 7.15213 0.626404 7.20422L0.486755 7.25208C0.458689 7.26273 0.429409 7.26902 0.399841 7.27161L0.311951 7.2677C0.282496 7.26212 0.253616 7.25263 0.22699 7.23938L0.153748 7.18958C0.131453 7.16961 0.112359 7.14617 0.0961304 7.12122L0.0570679 7.04016C0.0383898 6.98293 0.0345193 6.92151 0.0463257 6.86243L0.212341 6.03333L0.235779 5.96008C0.246187 5.93669 0.259444 5.91424 0.274841 5.89368L0.327576 5.83801C0.346968 5.8217 0.368352 5.80753 0.391052 5.79602L0.394958 5.79407C1.16552 5.45224 1.97733 5.2204 2.80804 5.10461L3.12543 5.07043ZM3.89398 5.797C3.56656 5.72678 3.21331 5.73318 2.90668 5.7804H2.9057C2.19468 5.88327 1.49752 6.07172 0.828552 6.34192L0.807068 6.44836C1.03617 6.39641 1.26964 6.36749 1.50433 6.3634L1.63422 6.36145C1.8917 6.36948 2.14216 6.45105 2.35687 6.59778L2.46136 6.67688L2.46527 6.67981L2.46429 6.68079L2.52484 6.74329C2.77065 7.02297 2.83913 7.4219 2.74847 7.91711L2.69476 8.15247L2.42133 9.13684C2.15787 10.0638 1.8473 11.1559 1.70551 12.087C1.6346 12.5528 1.60671 12.9735 1.64594 13.3107C1.68541 13.6499 1.79132 13.8885 1.97113 14.0128L2.15375 14.1349C2.57186 14.4062 2.9448 14.574 3.435 14.5919C3.99447 14.6123 4.71468 14.4372 5.83344 13.9786L5.85687 13.8986C5.6598 13.9443 5.43376 13.9833 5.20648 13.9884C4.96378 13.9938 4.7146 13.9621 4.49847 13.8605L4.40765 13.8126C4.27526 13.7333 4.16271 13.623 4.07855 13.4913C3.99474 13.3601 3.9412 13.2106 3.9223 13.0548L3.90277 12.8585C3.87769 12.3759 3.98809 11.7323 4.14301 11.0812C4.32084 10.3338 4.56125 9.56296 4.74066 8.9884L4.86761 8.57825C4.90213 8.46358 4.92722 8.37558 4.93695 8.32825V8.32727L4.94281 8.3009L5.00336 7.95911C5.1061 7.24438 5.02579 6.70746 4.7807 6.34583L4.72113 6.26477C4.51771 6.01294 4.22114 5.8672 3.89398 5.797ZM4.96527 0.202271C5.40879 0.248375 5.82574 0.452274 6.14301 0.781372C6.5054 1.15738 6.70889 1.66684 6.70941 2.19739L6.70355 2.34583C6.68243 2.64032 6.59881 2.92648 6.45844 3.18372L6.38324 3.30969C6.19736 3.59819 5.94295 3.83183 5.64496 3.98743L5.51508 4.04895C5.2055 4.18193 4.86867 4.22883 4.53754 4.18665L4.39594 4.16321C4.02003 4.08563 3.67517 3.89393 3.40472 3.6134C3.16802 3.36787 2.99738 3.06403 2.90863 2.73157L2.87543 2.58801C2.80095 2.19972 2.83968 1.79673 2.98578 1.43079C3.13191 1.06503 3.3796 0.751888 3.69769 0.531372L3.81879 0.453247C4.10898 0.282762 4.43833 0.192553 4.77386 0.192505L4.96527 0.202271ZM4.52679 0.901489C4.34219 0.93954 4.16834 1.01933 4.01801 1.13489L3.8764 1.26184C3.74279 1.40038 3.64089 1.56771 3.57758 1.7511L3.52679 1.9386C3.47751 2.19536 3.50359 2.4615 3.60004 2.70325L3.68402 2.87805C3.78044 3.04481 3.91207 3.18736 4.06879 3.29602C4.27772 3.44088 4.52311 3.51863 4.77386 3.51868L4.89886 3.51184C5.18902 3.48167 5.46261 3.34837 5.67133 3.13196C5.90979 2.88452 6.04392 2.54841 6.04437 2.19739L6.0307 2.00305C6.0123 1.87443 5.97581 1.74942 5.9223 1.63196L5.83051 1.46204C5.69055 1.2447 5.49114 1.07638 5.25922 0.976685C5.08534 0.901955 4.89867 0.868681 4.71234 0.878052L4.52679 0.901489Z" fill="#DFDFDF" stroke="#DFDFDF" stroke-width="0.15"/>
</g>
<defs>
<clipPath id="clip0_160_566">
<rect width="6.90909" height="15.2" fill="white"/>
</clipPath>
</defs>
</svg>
