<svg width="20" height="20" viewBox="0 0 20 20" fill="none" xmlns="http://www.w3.org/2000/svg">
<g clip-path="url(#clip0_425_84)">
<path d="M18.2926 3.98987H1.57262C0.944096 3.98987 0.432617 4.50135 0.432617 5.12987V7.02987H19.4326V5.12987C19.4326 4.50135 18.9211 3.98987 18.2926 3.98987ZM0.432617 15.7699C0.432617 16.3984 0.944096 16.9099 1.57262 16.9099H18.2926C18.9211 16.9099 19.4326 16.3984 19.4326 15.7699V9.30987H0.432617V15.7699ZM3.85262 11.5899H10.6926C10.9024 11.5899 11.0726 11.7601 11.0726 11.9699C11.0726 12.1796 10.9024 12.3499 10.6926 12.3499H3.85262C3.64288 12.3499 3.47262 12.1796 3.47262 11.9699C3.47262 11.7601 3.64288 11.5899 3.85262 11.5899ZM3.85262 13.1099H7.65262C7.86236 13.1099 8.03262 13.2801 8.03262 13.4899C8.03262 13.6996 7.86236 13.8699 7.65262 13.8699H3.85262C3.64288 13.8699 3.47262 13.6996 3.47262 13.4899C3.47262 13.2801 3.64288 13.1099 3.85262 13.1099Z" fill="#FF6821"/>
</g>
<defs>
<clipPath id="clip0_425_84">
<rect width="19" height="19" fill="white" transform="translate(0.432617 0.949829)"/>
</clipPath>
</defs>
</svg>
