<svg width="15" height="10" viewBox="0 0 15 10" fill="none" xmlns="http://www.w3.org/2000/svg">
<path d="M12.9845 0.165405L13.173 0.174194C14.1002 0.265778 14.828 1.02742 14.8282 1.95349V7.97302C14.8281 8.96028 13.9995 9.76111 12.9845 9.76111H1.95032C0.936044 9.76104 0.107676 8.96093 0.107544 7.97302V1.95349L0.116333 1.77673C0.158764 1.36716 0.346155 0.982083 0.64856 0.688843L0.783325 0.570679C1.11119 0.31002 1.52313 0.1659 1.95032 0.165405H12.9845ZM1.03528 7.97302C1.03541 8.4601 1.4442 8.85869 1.95032 8.85876H12.9845C13.49 8.85876 13.9004 8.46012 13.9005 7.97302V3.6322H1.03528V7.97302ZM1.95032 1.06775C1.44429 1.06782 1.03555 1.46653 1.03528 1.95349V2.72888H13.9005V1.95349C13.9002 1.46651 13.4899 1.06775 12.9845 1.06775H1.95032Z" fill="white" stroke="white" stroke-width="0.1"/>
</svg>
