<svg width="21" height="21" viewBox="0 0 21 21" fill="none" xmlns="http://www.w3.org/2000/svg">
<g clip-path="url(#clip0_19_35)">
<path d="M14.2413 12.3546L11.3133 10.1587V5.68541C11.3133 5.23563 10.9497 4.87207 10.5 4.87207C10.0502 4.87207 9.68661 5.23563 9.68661 5.68541V10.5654C9.68661 10.8216 9.807 11.0631 10.012 11.216L13.2652 13.656C13.4056 13.7618 13.5767 13.8189 13.7524 13.8187C14.0005 13.8187 14.2445 13.7072 14.4039 13.4925C14.674 13.1338 14.6008 12.6239 14.2413 12.3546Z" fill="#FF6821"/>
<path d="M10.5 0C4.70995 0 0 4.70995 0 10.5C0 16.2901 4.70995 21 10.5 21C16.2901 21 21 16.2901 21 10.5C21 4.70995 16.2901 0 10.5 0ZM10.5 19.3734C5.60786 19.3734 1.62664 15.3921 1.62664 10.5C1.62664 5.60786 5.60786 1.62664 10.5 1.62664C15.393 1.62664 19.3734 5.60786 19.3734 10.5C19.3734 15.3921 15.3921 19.3734 10.5 19.3734Z" fill="#FF6821"/>
</g>
<defs>
<clipPath id="clip0_19_35">
<rect width="21" height="21" fill="white"/>
</clipPath>
</defs>
</svg>
