<svg width="17" height="17" viewBox="0 0 17 17" fill="none" xmlns="http://www.w3.org/2000/svg">
<path d="M9.9375 11.9554C10.1964 11.9554 10.4062 11.7456 10.4062 11.4867C10.4062 11.2278 10.1964 11.0179 9.9375 11.0179C9.67862 11.0179 9.46875 11.2278 9.46875 11.4867C9.46875 11.7456 9.67862 11.9554 9.9375 11.9554Z" fill="#FF6821"/>
<path d="M6.1875 6.33044C6.44638 6.33044 6.65625 6.12058 6.65625 5.86169C6.65625 5.60281 6.44638 5.39294 6.1875 5.39294C5.92862 5.39294 5.71875 5.60281 5.71875 5.86169C5.71875 6.12058 5.92862 6.33044 6.1875 6.33044Z" fill="#FF6821"/>
<path d="M15.3309 7.61698C14.799 7.26908 14.5994 6.52339 14.8855 5.95529C15.1359 5.45954 15.1624 5.03383 14.9637 4.69004C14.7651 4.34626 14.3833 4.15629 13.8285 4.1247C13.1936 4.08898 12.6479 3.54333 12.6122 2.90795C12.5806 2.35361 12.3907 1.97183 12.0469 1.77317C11.7031 1.57589 11.2774 1.60151 10.7816 1.85145C10.2135 2.13526 9.46737 1.93798 9.1195 1.40604C8.51069 0.476794 7.61437 0.476794 7.00556 1.40604C6.65722 1.93751 5.91197 2.13664 5.34344 1.85145C4.84722 1.60151 4.4215 1.57589 4.07819 1.77317C3.73441 1.97183 3.54444 2.35361 3.51284 2.90842C3.47713 3.54333 2.93147 4.08898 2.29609 4.1247C1.74175 4.15629 1.35997 4.34626 1.16131 4.69004C0.962656 5.03383 0.989187 5.45954 1.23959 5.95529C1.52569 6.52339 1.32613 7.26908 0.793719 7.61742C0.3295 7.92233 0.0625 8.27754 0.0625 8.67442C0.0625 9.07129 0.3295 9.42698 0.794125 9.73139C1.32603 10.0797 1.52562 10.8254 1.23953 11.3935C0.989125 11.8893 0.962594 12.315 1.16125 12.6588C1.35991 13.0025 1.74169 13.1925 2.2965 13.2241C2.93141 13.2598 3.47706 13.8055 3.51278 14.4409C3.54437 14.9952 3.73434 15.377 4.07812 15.5756C4.42238 15.7739 4.84716 15.7473 5.34338 15.4974C5.91147 15.2117 6.65669 15.4104 7.0055 15.9432C7.31037 16.4074 7.66559 16.7056 8.06247 16.7056C8.45934 16.7056 8.81456 16.4074 9.11991 15.9428C9.46734 15.4099 10.2117 15.2094 10.7816 15.4974C11.2773 15.7473 11.7044 15.7739 12.0468 15.5756C12.3906 15.377 12.5806 14.9952 12.6122 14.4404C12.6479 13.8055 13.1936 13.2598 13.8289 13.2241C14.3833 13.1925 14.7651 13.0025 14.9637 12.6588C15.1624 12.315 15.1358 11.8893 14.8854 11.3935C14.5993 10.8254 14.7989 10.0797 15.3308 9.73139C15.7955 9.42698 16.0625 9.07129 16.0625 8.67442C16.0625 8.27754 15.7955 7.92233 15.3309 7.61698ZM6.1875 4.45567C6.96294 4.45567 7.59375 5.08648 7.59375 5.86192C7.59375 6.63736 6.96294 7.26817 6.1875 7.26817C5.41206 7.26817 4.78125 6.63736 4.78125 5.86192C4.78125 5.08648 5.41206 4.45567 6.1875 4.45567ZM5.62491 12.7055L4.87509 12.1434L10.5001 4.64336L11.2499 5.20548L5.62491 12.7055ZM9.9375 12.8932C9.16206 12.8932 8.53125 12.2624 8.53125 11.4869C8.53125 10.7115 9.16206 10.0807 9.9375 10.0807C10.7129 10.0807 11.3438 10.7115 11.3438 11.4869C11.3438 12.2624 10.7129 12.8932 9.9375 12.8932Z" fill="#FF6821"/>
</svg>
