<svg width="20" height="18" viewBox="0 0 20 18" fill="none" xmlns="http://www.w3.org/2000/svg">
<path d="M18.9204 0.485684C18.5903 0.172477 18.151 0 17.6835 0H11.0229C10.5556 0 10.1163 0.172406 9.78589 0.485473L0.945135 8.86092C0.614602 9.17402 0.432617 9.59017 0.432617 10.0327C0.432617 10.4753 0.614676 10.8915 0.945135 11.2043L7.60567 17.5144C7.93602 17.8275 8.37528 18 8.84249 18C9.30966 18 9.74893 17.8276 10.0794 17.5145L18.9202 9.13901C19.2506 8.82598 19.4326 8.4098 19.4326 7.96714V1.65702C19.4326 1.21416 19.2506 0.797977 18.9204 0.485684ZM9.93265 4.14763C10.8971 4.14763 11.6817 4.89097 11.6817 5.80465C11.6817 6.71832 10.8971 7.46167 9.93265 7.46167C8.96822 7.46167 8.18358 6.71832 8.18358 5.80465C8.18358 4.89097 8.96822 4.14763 9.93265 4.14763ZM9.93265 13.8523C8.96822 13.8523 8.18358 13.109 8.18358 12.1953C8.18358 11.2816 8.96822 10.5383 9.93265 10.5383C10.8971 10.5383 11.6817 11.2816 11.6817 12.1953C11.6817 13.109 10.8971 13.8523 9.93265 13.8523ZM13.51 9.52731H6.35535C6.04793 9.52731 5.79871 9.2912 5.79871 8.99996C5.79871 8.70873 6.04793 8.47262 6.35535 8.47262H13.51C13.8174 8.47262 14.0666 8.70873 14.0666 8.99996C14.0666 9.2912 13.8174 9.52731 13.51 9.52731ZM15.8949 3.87889C15.5876 3.87889 15.3382 3.64264 15.3382 3.35155C15.3382 3.06046 15.5876 2.82421 15.8949 2.82421C16.2021 2.82421 16.4515 3.06046 16.4515 3.35155C16.4515 3.64264 16.2021 3.87889 15.8949 3.87889Z" fill="#FF6821"/>
</svg>
