<svg width="21" height="15" viewBox="0 0 21 15" fill="none" xmlns="http://www.w3.org/2000/svg">
<path d="M19.1543 0.117188H1.8457C0.825932 0.117188 0 0.948246 0 1.96289V13.0371C0 14.0578 0.832002 14.8828 1.8457 14.8828H19.1543C20.1655 14.8828 21 14.0613 21 13.0371V1.96289C21 0.950051 20.1773 0.117188 19.1543 0.117188ZM18.8958 1.34766L11.8051 8.40099C11.4565 8.74962 10.993 8.94158 10.5 8.94158C10.007 8.94158 9.54352 8.74958 9.19373 8.39984L2.10418 1.34766H18.8958ZM1.23047 12.7867V2.21411L6.54765 7.50328L1.23047 12.7867ZM2.10496 13.6523L7.42005 8.37105L8.32482 9.27105C8.90585 9.85208 9.67833 10.172 10.5 10.172C11.3217 10.172 12.0942 9.85208 12.674 9.2722L13.5799 8.37105L18.895 13.6523H2.10496ZM19.7695 12.7867L14.4523 7.50328L19.7695 2.21411V12.7867Z" fill="#FF6821"/>
</svg>
