<svg width="17" height="9" viewBox="0 0 17 9" fill="none" xmlns="http://www.w3.org/2000/svg">
<path d="M11.6829 0.654713C11.3531 0.331894 10.8158 0.327822 10.4808 0.645639L4.19789 6.65699L1.46665 3.91976C1.14089 3.59109 0.601597 3.5803 0.262115 3.89565C-0.0774042 4.211 -0.088548 4.73308 0.237207 5.06172L0.241598 5.06612L3.57177 8.40704C3.65067 8.48497 3.74476 8.54696 3.84859 8.58943C3.95242 8.6319 4.06392 8.654 4.17664 8.65445H4.18601C4.40938 8.65377 4.62354 8.56818 4.78235 8.41611L11.6752 1.81839C12.0082 1.49868 12.0116 0.978532 11.6829 0.654713ZM8.68326 8.40704C8.76196 8.48477 8.85578 8.54665 8.9593 8.58911C9.06282 8.63157 9.174 8.65378 9.28643 8.65445H9.2958C9.51917 8.65377 9.73333 8.56818 9.89215 8.41611L16.785 1.81839C17.0975 1.47782 17.0655 0.956563 16.7138 0.654105C16.3948 0.379904 15.9156 0.376296 15.5923 0.645639L9.31196 6.65699L9.08791 6.43183C8.76219 6.10316 8.22289 6.09233 7.88337 6.40769C7.54385 6.723 7.53267 7.24508 7.85843 7.57376L7.86286 7.57819L8.68326 8.40704Z" fill="#DFDFDF"/>
</svg>
