<svg width="16" height="22" viewBox="0 0 16 22" fill="none" xmlns="http://www.w3.org/2000/svg">
<path d="M7.96758 0C3.57423 0 0 3.57423 0 7.96753C0 13.4198 7.1302 21.4239 7.43377 21.762C7.71892 22.0796 8.21675 22.079 8.50138 21.762C8.80495 21.4239 15.9352 13.4198 15.9352 7.96753C15.9351 3.57423 12.3609 0 7.96758 0ZM7.96758 20.1837C5.5679 17.3332 1.43481 11.7095 1.43481 7.96762C1.43481 4.36537 4.36537 1.43481 7.96758 1.43481C11.5698 1.43481 14.5003 4.36537 14.5003 7.96758C14.5003 11.7096 10.3679 17.3323 7.96758 20.1837Z" fill="#FF6821"/>
<path d="M7.96757 3.95898C5.75717 3.95898 3.95892 5.75727 3.95892 7.96767C3.95892 10.1781 5.75721 11.9764 7.96757 11.9764C10.1779 11.9764 11.9762 10.1781 11.9762 7.96767C11.9762 5.75727 10.1779 3.95898 7.96757 3.95898ZM7.96757 10.5415C6.54831 10.5415 5.39374 9.38693 5.39374 7.96767C5.39374 6.54841 6.54835 5.3938 7.96757 5.3938C9.38679 5.3938 10.5414 6.54841 10.5414 7.96767C10.5414 9.38693 9.38679 10.5415 7.96757 10.5415Z" fill="#FF6821"/>
</svg>
