<svg width="18" height="18" viewBox="0 0 18 18" fill="none" xmlns="http://www.w3.org/2000/svg">
<g clip-path="url(#clip0_425_90)">
<path d="M14.2452 3.89153C14.1728 3.81909 14.0802 3.78293 13.9677 3.78293H11.9031C11.7662 3.11507 11.5086 2.53533 11.1303 2.04436H13.9434C14.0563 2.04436 14.1486 2.00816 14.2212 1.93589C14.2933 1.86349 14.3295 1.77083 14.3295 1.65818V0.426389C14.3295 0.313647 14.2933 0.221162 14.2212 0.148679C14.1485 0.0763651 14.0562 0.0400391 13.9433 0.0400391H3.89803C3.78528 0.0400391 3.6928 0.0763651 3.62032 0.148637C3.54804 0.22112 3.51172 0.313605 3.51172 0.426347V2.03214C3.51172 2.13676 3.54995 2.2273 3.62641 2.30376C3.70286 2.38022 3.7934 2.41844 3.89803 2.41844H5.64874C7.34701 2.41844 8.42563 2.87309 8.88438 3.78272H3.89803C3.78528 3.78272 3.69267 3.81888 3.62032 3.89132C3.54804 3.96385 3.51172 4.05629 3.51172 4.16903V5.40065C3.51172 5.51331 3.54788 5.60592 3.62032 5.67819C3.6928 5.75071 3.78545 5.78679 3.89803 5.78679H9.05366C8.87656 6.447 8.46399 6.94998 7.81595 7.29612C7.16788 7.64229 6.31284 7.81538 5.25029 7.81538H3.89803C3.7934 7.81538 3.70286 7.85365 3.62641 7.93007C3.54991 8.00657 3.51172 8.09715 3.51172 8.20169V9.73521C3.51172 9.84 3.54788 9.92851 3.62032 10.0009C5.16567 11.6429 7.16999 13.9407 9.63302 16.895C9.70554 16.9917 9.80611 17.0399 9.93492 17.0399H12.2892C12.4584 17.0399 12.5752 16.9676 12.6394 16.8225C12.7199 16.6776 12.7041 16.5407 12.5911 16.4119C10.241 13.5302 8.39358 11.3731 7.04934 9.94039C8.41772 9.77944 9.52852 9.33663 10.3818 8.61235C11.2349 7.88799 11.754 6.94605 11.9393 5.787H13.9677C14.0802 5.787 14.1729 5.75088 14.2452 5.6784C14.3177 5.60613 14.354 5.51352 14.354 5.40086V4.16937C14.354 4.0565 14.3177 3.96401 14.2452 3.89153Z" fill="#FF6821"/>
</g>
<defs>
<clipPath id="clip0_425_90">
<rect width="17" height="17" fill="white" transform="translate(0.432617 0.0400391)"/>
</clipPath>
</defs>
</svg>
