<svg width="18" height="11" viewBox="0 0 18 11" fill="none" xmlns="http://www.w3.org/2000/svg">
<path d="M5.46875 8.15784C5.57293 8.15784 5.67317 8.19932 5.74707 8.27209C5.82078 8.3448 5.86222 8.44343 5.8623 8.54651C5.8623 8.64978 5.82096 8.7491 5.74707 8.8219C5.67317 8.89468 5.57293 8.93518 5.46875 8.93518H4.09375C3.98957 8.93518 3.88933 8.89468 3.81543 8.8219C3.74154 8.7491 3.7002 8.64978 3.7002 8.54651C3.70028 8.44343 3.74172 8.3448 3.81543 8.27209C3.88933 8.19932 3.98957 8.15784 4.09375 8.15784H5.46875ZM14.4062 2.74182C16.1388 2.74182 17.5498 4.13033 17.5498 5.8385V5.84827L17.5479 5.84729L17.0273 8.61877C17.0147 8.68557 16.9844 8.74734 16.9404 8.79846L16.8916 8.84631C16.8388 8.88948 16.7757 8.91773 16.709 8.92932L16.6406 8.93518H15.7812C15.7033 8.93518 15.6276 8.91269 15.5635 8.87073L15.5029 8.8219C15.429 8.7491 15.3877 8.64978 15.3877 8.54651C15.3878 8.44343 15.4292 8.3448 15.5029 8.27209L15.5635 8.22327C15.6276 8.18124 15.7032 8.15784 15.7812 8.15784H16.3145L16.7676 5.77307C16.7596 4.55898 15.7058 3.51917 14.4062 3.51917H12.1895L11.1191 8.15784H13.0312C13.1354 8.15784 13.2357 8.19932 13.3096 8.27209L13.3584 8.33069C13.4014 8.39404 13.4247 8.46902 13.4248 8.54651C13.4248 8.62393 13.4013 8.69898 13.3584 8.76233L13.3096 8.8219C13.2357 8.89468 13.1354 8.93518 13.0312 8.93518H10.625C10.5956 8.93519 10.5666 8.93177 10.5381 8.92542L10.4551 8.89709C10.4285 8.8845 10.4029 8.86922 10.3799 8.8512L10.3174 8.78967C10.299 8.767 10.2833 8.74242 10.2705 8.71643L10.2412 8.6344C10.2279 8.57756 10.2282 8.51845 10.2412 8.46155L11.4902 3.04456L11.5107 2.98206C11.536 2.92151 11.5766 2.86804 11.6289 2.82678L11.6846 2.78967C11.7425 2.75815 11.8082 2.74179 11.875 2.74182H14.4062Z" fill="#DFDFDF" stroke="#DFDFDF" stroke-width="0.1"/>
<path d="M6.84375 6.80396C7.818 6.80396 8.6123 7.58508 8.6123 8.54712C8.61213 9.50901 7.81789 10.2893 6.84375 10.2893C5.86961 10.2893 5.07537 9.50901 5.0752 8.54712C5.0752 7.58508 5.8695 6.80396 6.84375 6.80396ZM14.4062 6.80396C15.3805 6.80396 16.1748 7.58508 16.1748 8.54712C16.1746 9.50901 15.3804 10.2893 14.4062 10.2893C13.4321 10.2893 12.6379 9.50901 12.6377 8.54712C12.6377 7.58508 13.432 6.80396 14.4062 6.80396ZM6.84375 7.5813C6.30208 7.5813 5.8623 8.0155 5.8623 8.54712C5.86248 9.07859 6.30219 9.51196 6.84375 9.51196C7.38531 9.51196 7.82502 9.07859 7.8252 8.54712C7.8252 8.0155 7.38542 7.5813 6.84375 7.5813ZM14.4062 7.5813C13.8646 7.5813 13.4248 8.0155 13.4248 8.54712C13.425 9.07859 13.8647 9.51196 14.4062 9.51196C14.9478 9.51196 15.3875 9.07859 15.3877 8.54712C15.3877 8.0155 14.9479 7.5813 14.4062 7.5813ZM5.46875 6.1272C5.57293 6.1272 5.67317 6.1677 5.74707 6.24048L5.7959 6.30005C5.83875 6.3634 5.8623 6.43845 5.8623 6.51587C5.86224 6.59336 5.83888 6.66834 5.7959 6.73169L5.74707 6.79028C5.67317 6.86306 5.57293 6.90454 5.46875 6.90454H1.34375C1.26574 6.90454 1.19011 6.88114 1.12598 6.83911L1.06543 6.79028C0.99172 6.71758 0.950283 6.61894 0.950195 6.51587C0.950195 6.4126 0.99154 6.31328 1.06543 6.24048L1.12598 6.19165C1.19008 6.14968 1.2658 6.1272 1.34375 6.1272H5.46875ZM5.46875 4.09595C5.57293 4.09595 5.67317 4.13645 5.74707 4.20923L5.7959 4.2688C5.83875 4.33215 5.8623 4.4072 5.8623 4.48462C5.86224 4.56211 5.83888 4.63709 5.7959 4.70044L5.74707 4.75903C5.67317 4.83181 5.57293 4.87329 5.46875 4.87329H2.03125C1.95324 4.87329 1.87761 4.84989 1.81348 4.80786L1.75293 4.75903C1.67922 4.68633 1.63778 4.58769 1.6377 4.48462C1.6377 4.38135 1.67904 4.28203 1.75293 4.20923L1.81348 4.1604C1.87758 4.11843 1.9533 4.09595 2.03125 4.09595H5.46875ZM5.46875 2.0647C5.57293 2.0647 5.67317 2.1052 5.74707 2.17798L5.7959 2.23755C5.83875 2.3009 5.8623 2.37595 5.8623 2.45337C5.86224 2.53086 5.83888 2.60584 5.7959 2.66919L5.74707 2.72778C5.67317 2.80056 5.57293 2.84204 5.46875 2.84204H2.71875C2.64074 2.84204 2.56511 2.81864 2.50098 2.77661L2.44043 2.72778C2.36672 2.65508 2.32528 2.55644 2.3252 2.45337C2.3252 2.3501 2.36654 2.25078 2.44043 2.17798L2.50098 2.12915C2.56508 2.08718 2.6408 2.0647 2.71875 2.0647H5.46875Z" fill="#DFDFDF" stroke="#DFDFDF" stroke-width="0.1"/>
<path d="M12.3438 0.710571L12.4307 0.720337C12.4592 0.726712 12.4871 0.736102 12.5137 0.748657L12.5889 0.794556C12.6118 0.812548 12.6329 0.833344 12.6514 0.856079L12.6982 0.929321C12.7111 0.955396 12.7209 0.98292 12.7275 1.01135L12.7373 1.09827L12.7275 1.1842L11.0088 8.63245C10.994 8.69708 10.9631 8.75645 10.9189 8.8053L10.8711 8.85022C10.8187 8.89142 10.7566 8.91933 10.6914 8.9303L10.625 8.93518H8.21875C8.11457 8.93518 8.01433 8.89468 7.94043 8.8219C7.86654 8.7491 7.8252 8.64978 7.8252 8.54651C7.82528 8.44343 7.86672 8.3448 7.94043 8.27209C8.01433 8.19932 8.11457 8.15784 8.21875 8.15784H10.3105L11.8496 1.48792H4.09375C4.01574 1.48792 3.94011 1.46451 3.87598 1.42249L3.81543 1.37366C3.74172 1.30095 3.70028 1.20232 3.7002 1.09924L3.70801 1.02307C3.72314 0.948143 3.75992 0.87854 3.81543 0.823853L3.87598 0.775024C3.94008 0.733058 4.0158 0.710571 4.09375 0.710571H12.3438Z" fill="#DFDFDF" stroke="#DFDFDF" stroke-width="0.1"/>
</svg>
