<?xml version="1.0" encoding="UTF-8"?>
<svg id="Layer_1" xmlns="http://www.w3.org/2000/svg" version="1.1" viewBox="0 0 321.6 138.9">
  <!-- Generator: Adobe Illustrator 29.3.1, SVG Export Plug-In . SVG Version: 2.1.0 Build 151)  -->
  <defs>
    <style>
      .st0 {
        fill: #fff;
      }
    </style>
  </defs>
  <path class="st0" d="M214.7,67.9c-1,0-1.7-.7-1.8-1.7,0-.1,0-.2,0-.4l1.4-8.5c.2-1.1,1.1-1.9,2.2-1.9h65c1.7,0,3.1-1.4,3.1-3.1,0-.7-.3-1.4-.7-2-.6-.7-1.5-1.1-2.4-1.1h-47.7c-8.6,0-15.6-7-15.6-15.6,0-8.6,7-15.6,15.6-15.6h66.8c.5,0,1,.2,1.4.6.3.4.5.9.4,1.4l-1.4,8.5c-.2,1.1-1.1,1.9-2.2,1.9h-65c-1.7,0-3,1.6-2.9,3.3,0,1.6,1.3,2.8,2.9,2.9h47.6c8.6.2,15.4,7.4,15.2,15.9-.2,8.3-6.9,15-15.2,15.2h-66.8Z"/>
  <path class="st0" d="M64.4,68c-.5,0-1-.2-1.3-.6-.3-.4-.5-.9-.4-1.5l5.6-35.3h-32.8c-.5,0-1-.2-1.3-.6-.3-.4-.5-.9-.4-1.5l1.3-8.5c.2-1.1,1.1-1.9,2.2-1.9h78.2c1,0,1.7.7,1.8,1.7,0,.1,0,.2,0,.4l-1.3,8.5c-.2,1.1-1.1,1.9-2.2,1.9h-32.9l-5.7,35.5c-.2,1.1-1.1,1.9-2.2,1.9h-8.5Z"/>
  <path class="st0" d="M136.6,68c-4.1,0-8.1-1.7-10.8-4.8-2.7-3.3-3.8-7.6-3-11.7l7.9-49.1c.2-1.3,1.3-2.3,2.7-2.4h6.9c.8,0,1.6.4,2.1,1,.5.6.8,1.4.6,2.2l-7.8,48.4c-.2,1,0,2,.7,2.8.6.7,1.6,1.1,2.5,1.1h49.3c2.3,0,4.2-1.7,4.7-4l7.9-49.1c.2-1.4,1.4-2.4,2.7-2.4h6.9c.8,0,1.6.4,2.1,1,.5.6.8,1.4.6,2.2l-7.8,48.4c-1.5,9-10,16.4-19,16.4h-49.3Z"/>
  <path class="st0" d="M193.1,98.5c-6.7-.2-12.3,5.2-12.5,11.9-.2,2.2.6,4.4,2.1,6,1.6,1.6,3.8,2.4,6.1,2.3,6.7.2,12.4-5.1,12.6-11.8,0,0,0-.2,0-.3.2-2.1-.6-4.3-2-5.8-1.7-1.6-4-2.4-6.3-2.3Z"/>
  <path class="st0" d="M35.1,98.5c-6.7-.2-12.4,5.2-12.5,11.9-.2,2.2.6,4.4,2.1,6,1.6,1.6,3.8,2.4,6.1,2.3,6.7.2,12.4-5.1,12.6-11.8,0,0,0-.2,0-.3.2-2.1-.6-4.3-2-5.8-1.7-1.6-3.9-2.4-6.3-2.3Z"/>
  <polygon class="st0" points="230.6 111.7 238.9 111.7 236.6 102 230.6 111.7"/>
  <path class="st0" d="M151.7,98.8h-7.6l-1.5,7.9h7.5c2.7-.3,4.7-2.5,4.8-5.2,0-1.7-1.2-2.7-3.2-2.7Z"/>
  <path class="st0" d="M315.6,2.1c-2.2-1.3-4.7-2-7.3-2h-84.7l-1.2,7.7h84.8c1,0,2,.2,2.9.6,2.6,1.2,4.1,4.1,3.6,6.9l-9.2,57.5c-.5,3.2-3.2,5.5-6.4,5.5H23c-3.6,0-6.5-2.8-6.6-6.3,0-.4,0-.8,0-1.2L25.5,14.2c.5-3.1,3.4-6.5,6.6-6.5h87.1l1.3-7.8H31.1c-6.4,0-11.9,4.7-12.9,11L.2,123.7c-.8,5.2,1.5,10.3,5.9,13.1,2.2,1.3,4.7,2,7.3,2h277.3c6.4,0,11.9-4.6,12.9-10.9l17.9-112.7c.8-5.2-1.5-10.3-5.9-13.1ZM49.6,121.4c-4.7,4.8-11.7,7.4-19.9,7.4-11.8,0-19.3-6.4-19.5-16.8-.3-6,2-11.9,6.2-16.3,4.7-4.8,11.8-7.5,19.8-7.5,11.8,0,19.3,6.4,19.5,16.8.3,6.1-1.9,12-6.1,16.3h0ZM88,115h-17.3l-2.4,13h-12.1l7.1-38.7h30.6l-1.8,10h-18.5l-1.1,5.9h17.3l-1.8,9.8ZM123.1,115h-17.3l-2.4,13h-12.1l7.1-38.7h30.6l-1.8,10h-18.5l-1.1,5.9h17.4l-1.9,9.8ZM164.2,126.6l-.2,1.3h-12.6l-6.9-12.2h-3.5l-2.2,12.2h-12.3l7.1-38.7h19.6c10.1,0,13.7,6.2,13.7,11.6s-3.5,11.3-10.3,13.6l7.6,12.2ZM168.2,112.1c-.3-6,2-11.9,6.2-16.3,4.7-4.8,11.8-7.5,19.8-7.5,11.8,0,19.3,6.4,19.4,16.8.3,6.1-1.9,12-6.1,16.3-4.7,4.8-11.7,7.4-19.8,7.4-11.8,0-19.3-6.4-19.5-16.8h0ZM242.7,127.9l-1.5-6.2h-16.8l-3.7,6.2h-13.4l25.2-38.7h11.9v.4c.1,0,11,38.3,11,38.3h-12.7ZM273.9,127.9h-17.5l7.1-38.7h17.3c11.3,0,18,5.9,18,15.8s-7.8,22.9-24.9,22.9h0Z"/>
  <path class="st0" d="M279.2,99.2h-5.4l-3.4,18.7h5.2c8.8,0,11.1-7.3,11.1-11.6s-2.7-7.1-7.5-7.1Z"/>
</svg>