<?xml version="1.0" encoding="UTF-8"?>
<!-- Generator: Adobe Illustrator 28.0.0, SVG Export Plug-In . SVG Version: 6.00 Build 0)  -->
<svg version="1.1" id="Layer_1" xmlns="http://www.w3.org/2000/svg" xmlns:xlink="http://www.w3.org/1999/xlink" x="0px" y="0px" viewBox="0 0 705.2 86.1" style="enable-background:new 0 0 705.2 86.1;" xml:space="preserve"><script xmlns=""/>
<g>
	<path d="M206.3,67.9c-0.5,0-1-0.2-1.4-0.6c-0.3-0.4-0.5-0.9-0.4-1.5l1.4-8.5c0.2-1.1,1.1-1.9,2.2-1.9h65c1.5,0,2.8-1.1,3.1-2.6   c0.1-0.9-0.1-1.8-0.7-2.5c-0.6-0.7-1.5-1.1-2.4-1.1l-47.7,0c-4.6,0-8.9-2-11.8-5.5c-3-3.5-4.2-8-3.5-12.6   c1.2-7.6,7.7-13.1,15.4-13.1l66.8,0c0.5,0,1,0.2,1.3,0.6c0.3,0.4,0.5,0.9,0.4,1.4l-1.4,8.5c-0.2,1.1-1.1,1.9-2.2,1.9h-65   c-1.5,0-2.8,1.1-3.1,2.6c-0.1,0.9,0.1,1.8,0.7,2.5c0.6,0.7,1.5,1.1,2.4,1.1h47.6c4.6,0,8.9,2,11.8,5.5c3,3.5,4.2,8,3.5,12.6   c-1.2,7.6-7.7,13.1-15.4,13.1H206.3z"/>
	<path d="M55.9,68c-0.5,0-1-0.2-1.4-0.6c-0.3-0.4-0.5-0.9-0.4-1.5l5.6-35.4H27.1c-0.5,0-1-0.2-1.4-0.6c-0.3-0.4-0.5-0.9-0.4-1.5   l1.4-8.5c0.2-1.1,1.1-1.9,2.2-1.9h78.2c0.5,0,1,0.2,1.4,0.6c0.3,0.4,0.5,0.9,0.4,1.5l-1.4,8.5c-0.2,1.1-1.1,1.9-2.2,1.9H72.3   l-5.7,35.5c-0.2,1.1-1.1,1.9-2.2,1.9H55.9z"/>
	<path d="M128.1,67.9c-4.4,0-8.2-1.7-10.8-4.8c-2.7-3.1-3.8-7.3-3-11.7l7.9-49.1c0.2-1.3,1.4-2.3,2.7-2.3h6.9c0.8,0,1.6,0.4,2.1,1   c0.5,0.6,0.8,1.4,0.6,2.2l-7.8,48.4c-0.2,1,0.1,2,0.7,2.8c0.6,0.7,1.5,1.1,2.5,1.1h49.3c2.2,0,4.3-1.8,4.7-4l7.9-49.1   c0.2-1.3,1.4-2.3,2.7-2.3h6.9c0.8,0,1.6,0.4,2.1,1c0.5,0.6,0.8,1.4,0.6,2.2l-7.8,48.4c-1.4,9-9.9,16.3-18.9,16.3H128.1z"/>
	<path d="M307.1,2.1c-2.2-1.4-4.7-2-7.3-2l-84.7,0l-1.3,7.8l84.7,0c1,0,2,0.2,2.9,0.6c2.7,1.3,4,4.2,3.6,6.9L296,72.8   c-0.5,3.2-3.2,5.5-6.4,5.5l-275,0c-1,0-2-0.2-2.9-0.6c-2.7-1.3-4-4.2-3.6-6.9l9-56.5c0.5-3.2,3.4-6.5,6.6-6.5l87.1,0L112,0H22.6   C16.2,0,10.7,4.7,9.7,11L0.2,70.9c-0.8,5,1.4,10.2,5.9,13.1c2.2,1.4,4.7,2,7.3,2l277.2,0c6.4,0,11.9-4.7,12.9-11l9.6-59.9   C313.9,10.1,311.7,5,307.1,2.1z"/>
	<g>
		<path d="M369.3,17.4c-10.3,0-19.3,3.4-25.3,9.6c-5.3,5.4-8,12.6-7.9,20.8c0.2,13.2,9.7,21.4,24.9,21.4c10.4,0,19.4-3.4,25.4-9.5    c5.3-5.4,8-12.6,7.8-20.9C393.9,25.6,384.4,17.4,369.3,17.4z M362.3,56.2c-3.2,0-5.9-1-7.8-2.9c-1.8-1.9-2.8-4.5-2.7-7.6    c0.1-8.6,7.2-15.2,16-15.2c3.4,0,6.1,1,8,2.9c1.8,1.8,2.7,4.4,2.6,7.5C378.3,49.6,371.3,56.2,362.3,56.2z"/>
		<polygon points="417,31.4 440.7,31.4 443,18.6 403.9,18.6 394.8,68.1 410.3,68.1 413.3,51.5 435.5,51.5 437.8,39 415.6,39   "/>
		<polygon points="462,31.4 485.7,31.4 488,18.6 448.8,18.6 439.7,68.1 455.2,68.1 458.2,51.5 480.4,51.5 482.8,39 460.6,39   "/>
		<path d="M536.4,33.4c0-6.8-4.6-14.8-17.5-14.8h-25.1l-9.1,49.5h15.6l2.9-15.6h4.5l8.8,15.6h16.1l0.3-1.7l-9.7-15.7    C532,47.9,536.4,42,536.4,33.4z M515,41h-9.6l1.9-10.1h9.7c2.5,0,4,1.3,4.1,3.5C521.2,37.3,518.7,40.7,515,41z"/>
		<path d="M596.2,38.9c-0.2-13.2-9.7-21.4-24.9-21.4c-10.3,0-19.3,3.4-25.3,9.6c-5.3,5.4-8,12.6-7.9,20.8    c0.2,13.2,9.7,21.4,24.9,21.4c10.4,0,19.4-3.4,25.4-9.5C593.6,54.4,596.3,47.2,596.2,38.9z M564.4,56.2c-3.2,0-5.9-1-7.8-2.9    c-1.8-1.9-2.8-4.5-2.7-7.6c0.1-8.6,7.2-15.2,16-15.2c3.4,0,6.1,1,8,2.9c1.8,1.8,2.7,4.4,2.6,7.5C580.3,49.6,573.4,56.2,564.4,56.2    z"/>
		<path d="M635.6,18.6h-15.3l-32.3,49.5h17.2l4.7-7.9h21.5l1.9,7.9h16.3l-13.9-49L635.6,18.6z M617.8,47.4l7.7-12.5l3,12.5H617.8z"/>
		<path d="M682.1,18.6H660l-9.1,49.5h22.4c21.9,0,31.9-15.2,31.9-29.3C705.2,26.1,696.6,18.6,682.1,18.6z M675.4,55.2h-6.6l4.4-23.9    h6.9c6.1,0,9.6,3.3,9.6,9.1C689.6,45.9,686.6,55.2,675.4,55.2z"/>
	</g>
</g>
</svg>