<svg width="13" height="15" viewBox="0 0 13 15" fill="none" xmlns="http://www.w3.org/2000/svg">
<path fill-rule="evenodd" clip-rule="evenodd" d="M6.5 5.77778C6.78453 5.77778 7.06628 5.72174 7.32915 5.61285C7.59202 5.50397 7.83087 5.34437 8.03207 5.14318C8.23326 4.94198 8.39286 4.70313 8.50174 4.44026C8.61063 4.17739 8.66667 3.89564 8.66667 3.61111C8.66667 3.32658 8.61063 3.04484 8.50174 2.78196C8.39286 2.51909 8.23326 2.28024 8.03207 2.07905C7.83087 1.87785 7.59202 1.71826 7.32915 1.60937C7.06628 1.50049 6.78453 1.44444 6.5 1.44444C5.92536 1.44444 5.37426 1.67272 4.96794 2.07905C4.56161 2.48538 4.33333 3.03648 4.33333 3.61111C4.33333 4.18575 4.56161 4.73685 4.96794 5.14318C5.37426 5.54951 5.92536 5.77778 6.5 5.77778ZM6.5 7.22222C7.45773 7.22222 8.37623 6.84177 9.05344 6.16455C9.73066 5.48734 10.1111 4.56884 10.1111 3.61111C10.1111 2.65339 9.73066 1.73489 9.05344 1.05767C8.37623 0.380455 7.45773 0 6.5 0C5.54227 0 4.62377 0.380455 3.94656 1.05767C3.26934 1.73489 2.88889 2.65339 2.88889 3.61111C2.88889 4.56884 3.26934 5.48734 3.94656 6.16455C4.62377 6.84177 5.54227 7.22222 6.5 7.22222ZM4.33333 10.1111C3.56715 10.1111 2.83235 10.4155 2.29058 10.9573C1.74881 11.499 1.44444 12.2338 1.44444 13V13.7222C1.44444 13.9138 1.36835 14.0975 1.23291 14.2329C1.09747 14.3684 0.913768 14.4444 0.722222 14.4444C0.530677 14.4444 0.346977 14.3684 0.211534 14.2329C0.076091 14.0975 0 13.9138 0 13.7222V13C0 11.8507 0.456547 10.7485 1.2692 9.93587C2.08186 9.12322 3.18406 8.66667 4.33333 8.66667H8.66667C9.81594 8.66667 10.9181 9.12322 11.7308 9.93587C12.5435 10.7485 13 11.8507 13 13V13.7222C13 13.9138 12.9239 14.0975 12.7885 14.2329C12.653 14.3684 12.4693 14.4444 12.2778 14.4444C12.0862 14.4444 11.9025 14.3684 11.7671 14.2329C11.6316 14.0975 11.5556 13.9138 11.5556 13.7222V13C11.5556 12.2338 11.2512 11.499 10.7094 10.9573C10.1676 10.4155 9.43285 10.1111 8.66667 10.1111H4.33333Z" fill="#FF6821"/>
</svg>
