<svg width="287" height="29" viewBox="0 0 287 29" fill="none" xmlns="http://www.w3.org/2000/svg">
<g clip-path="url(#clip0_63_174)">
<path d="M0 1.66986H10.214C15.148 1.66986 17.9043 4.77821 17.9043 8.50703C17.9043 10.9531 16.4665 12.6237 14.1755 13.3635C17.785 14.2166 19.5331 16.6269 19.5331 19.9262C19.5331 24.6275 16.1921 28.0819 10.6794 28.0819H0V1.66986ZM9.62932 11.4185C11.3774 11.4185 12.5408 10.446 12.5408 8.93063C12.5408 7.41523 11.5683 6.44276 9.8978 6.44276H5.42917V11.4125H9.62335L9.62932 11.4185ZM10.4467 23.303C12.6601 23.303 14.0562 21.8294 14.0562 19.6517C14.0562 17.4741 12.6183 16.0422 10.1364 16.0422H5.43514V23.303H10.4467Z" fill="#F2692A"/>
<path d="M23.6855 1.66986H29.1206V15.1831H40.4204V1.66986H45.8555V28.0759H40.4204V20.0395H29.1206V28.0759H23.6855V1.66986Z" fill="#F2692A"/>
<path d="M61.0452 1.43719H61.5106L73.586 28.0759H67.8764L66.6355 25.0869H55.9144L54.6734 28.0759H49.4292L61.0452 1.43719ZM64.6965 20.5467L62.7933 15.9647C62.0177 14.1033 61.2003 11.2276 61.2003 11.2276C61.2003 11.2276 60.4247 14.1033 59.6491 15.9647L57.746 20.5467H64.6965Z" fill="#F2692A"/>
<path d="M96.6569 28.0819H90.3627L86.0134 21.3998C85.5062 21.4774 84.9633 21.5191 84.4622 21.5191H82.6007V28.0819H77.1656V1.66986H84.4681C91.8482 1.66986 96.2751 5.2018 96.2751 11.6512C96.2751 15.7678 94.4494 18.369 91.186 19.8486L96.6629 28.0819H96.6569ZM84.307 16.7761C88.7339 16.7761 90.6789 15.38 90.6789 11.6512C90.6789 7.92235 88.6563 6.44872 84.307 6.44872H82.6007V16.782H84.307V16.7761Z" fill="#F2692A"/>
<path d="M110.48 1.43719H110.946L123.021 28.0759H117.312L116.071 25.0869H105.35L104.109 28.0759H98.8645L110.48 1.43719ZM114.126 20.5467L112.223 15.9647C111.447 14.1033 110.63 11.2276 110.63 11.2276C110.63 11.2276 109.854 14.1033 109.078 15.9647L107.175 20.5467H114.126Z" fill="#F2692A"/>
<path d="M128.922 6.44872H121.387V1.66986H141.892V6.44872H134.357V28.0819H128.922V6.44872Z" fill="#F2692A"/>
<path d="M151.975 6.44872H144.44V1.66986H164.945V6.44872H157.41V28.0819H151.975V6.44872Z" fill="#229A5B"/>
<path d="M196.375 18.1781V1.32383H201.81V17.8679C201.81 21.7101 203.48 23.1897 207.09 23.1897C210.699 23.1897 212.292 21.716 212.292 17.8679V1.32383H217.727V18.1781C217.727 24.8602 213.104 28.0819 207.084 28.0819C201.064 28.0819 196.363 24.8602 196.363 18.1781H196.375Z" fill="#229A5B"/>
<path d="M222.238 14.5268C222.238 6.72317 228.258 1.0136 235.829 1.0136C240.608 1.0136 244.02 2.7199 246.395 6.41293L242.242 9.36616C241.001 7.34364 238.866 5.91178 235.835 5.91178C231.056 5.91178 227.834 9.59884 227.834 14.5328C227.834 19.4668 231.056 23.2314 235.835 23.2314C239.253 23.2314 241.157 21.6027 242.63 19.3475L246.866 22.2589C244.575 25.8326 240.924 28.0819 235.835 28.0819C228.264 28.0819 222.244 22.3365 222.244 14.5268H222.238Z" fill="#229A5B"/>
<path d="M250.893 1.66986H256.328V15.1831H267.628V1.66986H273.063V28.0759H267.628V20.0395H256.328V28.0759H250.893V1.66986Z" fill="#229A5B"/>
<path fill-rule="evenodd" clip-rule="evenodd" d="M186.757 12.5043L183.756 14.6999V14.7953C183.756 17.319 181.608 19.3415 179.037 19.1267C177.009 18.9537 175.398 17.2892 175.099 15.2786C175.052 15.0041 175.052 14.8073 175.07 14.6104L172.051 12.558C171.83 13.2799 171.717 14.0317 171.717 14.7953C171.717 19.085 175.225 22.5513 179.526 22.4916C183.589 22.4319 186.996 19.079 187.109 15.0161C187.133 14.1569 187.02 13.3038 186.763 12.4984L186.757 12.5043ZM191.727 8.87693L188.965 10.8935C189.442 12.0569 189.699 13.3038 189.734 14.5746C189.854 20.0932 185.439 24.8303 179.926 25.0928C173.996 25.3732 169.104 20.666 169.104 14.8013C169.104 13.5066 169.348 12.2418 169.813 11.0426L166.991 9.12155C166.079 11.1262 165.661 13.3277 165.786 15.565C166.168 22.6288 172.081 28.3265 179.162 28.4697C186.829 28.6128 193.093 22.4439 193.093 14.8073C193.093 12.743 192.634 10.7264 191.745 8.8829L191.727 8.87693Z" fill="#229A5B"/>
<path d="M179.625 16.5245C180.504 16.4059 181.12 15.5977 181.001 14.7193C180.882 13.8409 180.074 13.225 179.196 13.3436C178.317 13.4622 177.701 14.2705 177.82 15.1488C177.939 16.0272 178.747 16.6431 179.625 16.5245Z" fill="white"/>
<path d="M190.361 5.33903C187.634 2.39177 183.732 0.536304 179.413 0.536304C175.094 0.536304 171.192 2.3858 168.465 5.33903C168.071 5.76859 168.095 6.43679 168.531 6.82459C168.954 7.20046 169.605 7.17659 169.987 6.75896C172.331 4.2174 175.69 2.61848 179.413 2.61848C183.136 2.61848 186.495 4.21143 188.839 6.75896C189.221 7.17659 189.872 7.20046 190.295 6.82459C190.731 6.43679 190.755 5.76859 190.361 5.33903Z" fill="white"/>
<path d="M179.413 4.84384C176.358 4.84384 173.596 6.14445 171.663 8.22066C171.269 8.64426 171.305 9.31246 171.734 9.70026C172.152 10.0761 172.802 10.0582 173.184 9.6406C174.741 7.97009 176.955 6.92602 179.413 6.92602C181.871 6.92602 184.084 7.97009 185.641 9.6406C186.023 10.0523 186.674 10.0761 187.091 9.70026C187.521 9.31246 187.563 8.64426 187.163 8.22066C185.224 6.14445 182.467 4.84384 179.413 4.84384Z" fill="white"/>
<path d="M179.413 9.03205C177.6 9.03205 175.953 9.78975 174.784 11.0068C174.378 11.4304 174.414 12.1046 174.849 12.4924C175.267 12.8683 175.905 12.8444 176.293 12.4387C177.08 11.6213 178.19 11.1142 179.413 11.1142C180.636 11.1142 181.74 11.6213 182.534 12.4387C182.921 12.8444 183.56 12.8623 183.977 12.4924C184.413 12.1046 184.449 11.4245 184.043 11.0068C182.874 9.78975 181.233 9.03205 179.413 9.03205Z" fill="white"/>
<path d="M285.986 1.66986H276.744C276.184 1.66986 275.73 2.12396 275.73 2.6841V5.24357C275.73 5.80372 276.184 6.25781 276.744 6.25781H285.986C286.546 6.25781 287 5.80372 287 5.24357V2.6841C287 2.12396 286.546 1.66986 285.986 1.66986Z" fill="white"/>
<path d="M277.12 2.83279C277.12 2.77313 277.132 2.73733 277.162 2.71943C277.192 2.70153 277.222 2.6896 277.263 2.6896H277.591C277.633 2.6896 277.669 2.70153 277.699 2.7254C277.729 2.74926 277.753 2.77909 277.776 2.81489L278.773 4.4675H278.779V2.83279C278.779 2.77313 278.791 2.73733 278.82 2.71943C278.85 2.70153 278.88 2.6896 278.922 2.6896H279.125C279.166 2.6896 279.196 2.70153 279.226 2.71943C279.256 2.73733 279.268 2.77313 279.268 2.83279V5.09395C279.268 5.15361 279.256 5.1894 279.226 5.2073C279.196 5.2252 279.166 5.23713 279.125 5.23713H278.803C278.761 5.23713 278.725 5.2252 278.701 5.20134C278.677 5.17747 278.653 5.14764 278.63 5.11185L277.609 3.4294H277.603V5.08798C277.603 5.14764 277.591 5.18344 277.562 5.20134C277.532 5.21924 277.502 5.23117 277.46 5.23117H277.257C277.216 5.23117 277.186 5.21924 277.156 5.20134C277.126 5.18344 277.114 5.14764 277.114 5.08798V2.82682L277.12 2.83279Z" fill="#243670"/>
<path d="M280.575 2.83326C280.575 2.7736 280.586 2.7378 280.616 2.7199C280.646 2.702 280.676 2.69007 280.718 2.69007H281.929C281.988 2.69007 282.024 2.702 282.042 2.73183C282.06 2.76166 282.072 2.7915 282.072 2.83326V3.00031C282.072 3.04207 282.06 3.0719 282.042 3.10173C282.024 3.13156 281.983 3.1435 281.929 3.1435H281.088V3.72221H281.905C281.965 3.72221 282 3.73414 282.018 3.76397C282.036 3.7938 282.048 3.82363 282.048 3.8654V4.03245C282.048 4.07421 282.036 4.10404 282.018 4.13387C282 4.1637 281.965 4.17563 281.905 4.17563H281.088V5.09442C281.088 5.15408 281.076 5.18987 281.046 5.20777C281.016 5.22567 280.986 5.2376 280.944 5.2376H280.718C280.676 5.2376 280.646 5.22567 280.616 5.20777C280.586 5.18987 280.575 5.15408 280.575 5.09442V2.83326Z" fill="#243670"/>
<path d="M283.2 3.96682C283.2 3.78187 283.229 3.60885 283.289 3.44777C283.349 3.28668 283.438 3.14946 283.552 3.03014C283.665 2.91082 283.796 2.81536 283.951 2.74973C284.106 2.6841 284.279 2.64831 284.464 2.64831C284.596 2.64831 284.721 2.66024 284.84 2.6841C284.96 2.70797 285.067 2.74973 285.162 2.80343C285.258 2.85712 285.341 2.92872 285.419 3.01224C285.491 3.10173 285.55 3.20316 285.592 3.32844C285.604 3.36424 285.604 3.39407 285.592 3.4239C285.58 3.45373 285.55 3.4776 285.491 3.48953L285.216 3.54323C285.174 3.54919 285.139 3.54323 285.115 3.51936C285.091 3.4955 285.067 3.46567 285.049 3.4239C284.995 3.30458 284.918 3.22106 284.816 3.17333C284.715 3.1256 284.602 3.09577 284.464 3.09577C284.357 3.09577 284.256 3.11963 284.166 3.16736C284.077 3.21509 284.005 3.27475 283.939 3.35828C283.874 3.4418 283.832 3.53129 283.796 3.63272C283.76 3.74011 283.749 3.8475 283.749 3.96682C283.749 4.10404 283.766 4.22336 283.802 4.33075C283.838 4.43814 283.886 4.52763 283.951 4.59923C284.017 4.67082 284.095 4.73048 284.184 4.77225C284.274 4.81401 284.375 4.83191 284.482 4.83191C284.59 4.83191 284.697 4.80804 284.793 4.76628C284.888 4.72452 284.966 4.65292 285.031 4.55746C285.055 4.5157 285.079 4.48587 285.103 4.46797C285.127 4.44411 285.162 4.43814 285.204 4.44411L285.509 4.47991C285.562 4.48587 285.592 4.50377 285.604 4.5336C285.61 4.56343 285.604 4.59326 285.592 4.62906C285.491 4.85577 285.341 5.02282 285.139 5.12425C284.942 5.22567 284.715 5.27937 284.458 5.27937C284.274 5.27937 284.106 5.24953 283.951 5.19584C283.796 5.13618 283.665 5.05265 283.552 4.9393C283.438 4.82594 283.355 4.68872 283.289 4.52763C283.229 4.36655 283.194 4.17563 283.194 3.96085L283.2 3.96682Z" fill="#243670"/>
</g>
<defs>
<clipPath id="clip0_63_174">
<rect width="287" height="27.9274" fill="white" transform="translate(0 0.536304)"/>
</clipPath>
</defs>
</svg>
